<svg xmlns="http://www.w3.org/2000/svg" xmlns:xlink="http://www.w3.org/1999/xlink" version="1.1" x="0px" y="0px" viewBox="0 0 200 250" enable-background="new 0 0 200 200" xml:space="preserve"><g><path fill="#000000" d="M100,149.454c-17.716,0-32.129-14.414-32.129-32.129c0-17.715,14.414-32.128,32.129-32.128v6.498   c-14.133,0-25.631,11.498-25.631,25.63S85.867,142.956,100,142.956s25.631-11.498,25.631-25.631h6.498   C132.129,135.04,117.716,149.454,100,149.454z"/><path fill="#000000" d="M146.022,56.614C132.689,46.503,116.775,41.159,100,41.159s-32.689,5.345-46.021,15.456l-3.926-5.178   C64.523,40.462,81.795,34.661,100,34.661s35.477,5.801,49.948,16.775L146.022,56.614z"/><path fill="#000000" d="M100,200c-45.583,0-82.669-37.087-82.669-82.669c0-18.215,5.806-35.486,16.791-49.949l5.175,3.929   c-10.12,13.323-15.468,29.237-15.468,46.02c0,42,34.169,76.171,76.171,76.171s76.172-34.171,76.172-76.171   c0-16.783-5.35-32.697-15.469-46.02l5.176-3.929c10.985,14.462,16.79,31.734,16.79,49.949C182.669,162.913,145.584,200,100,200z"/><path fill="#000000" d="M100,185.555c-37.622,0-68.229-30.609-68.229-68.229c0-37.621,30.608-68.229,68.229-68.229   c37.622,0,68.229,30.607,68.229,68.229C168.229,154.945,137.622,185.555,100,185.555z M100,55.595   c-34.039,0-61.731,27.691-61.731,61.73c0,34.038,27.693,61.731,61.731,61.731c34.038,0,61.731-27.693,61.731-61.731   C161.731,83.286,134.038,55.595,100,55.595z"/><g><rect x="152.91" y="46.727" transform="matrix(0.7071 0.7071 -0.7071 0.7071 88.9978 -92.5085)" fill="#000000" width="6.497" height="28.881"/><rect x="155.539" y="47.708" transform="matrix(0.7071 0.7071 -0.7071 0.7071 84.7626 -102.7172)" fill="#000000" width="21.661" height="6.497"/></g><g><rect x="29.401" y="57.919" transform="matrix(0.7071 0.7071 -0.7071 0.7071 56.0928 -13.0851)" fill="#000000" width="28.881" height="6.498"/><rect x="30.381" y="40.127" transform="matrix(0.7069 0.7073 -0.7073 0.7069 45.901 -8.8517)" fill="#000000" width="6.499" height="21.66"/></g><rect x="96.751" y="13.357" fill="#000000" width="6.498" height="24.552"/><path fill="#000000" d="M115.884,26.714H84.116c-3.566,0-6.921-1.389-9.445-3.91c-2.522-2.526-3.912-5.88-3.912-9.447   s1.389-6.921,3.911-9.444C77.195,1.389,80.55,0,84.116,0h31.768c3.566,0,6.921,1.389,9.445,3.911   c2.523,2.525,3.912,5.88,3.912,9.447s-1.389,6.921-3.91,9.444C122.805,25.325,119.45,26.714,115.884,26.714z M84.116,6.498   c-1.832,0-3.555,0.714-4.851,2.01c-1.295,1.294-2.008,3.018-2.008,4.85c0,1.832,0.713,3.555,2.01,4.852   c1.294,1.293,3.018,2.007,4.849,2.007h31.768c1.832,0,3.556-0.713,4.852-2.009c1.294-1.295,2.008-3.018,2.008-4.85   c0-1.832-0.714-3.555-2.01-4.853c-1.294-1.293-3.018-2.007-4.85-2.007H84.116z"/><rect x="152.91" y="46.727" transform="matrix(0.7071 0.7071 -0.7071 0.7071 88.9978 -92.5085)" fill="#000000" width="6.497" height="28.881"/><rect x="29.401" y="57.919" transform="matrix(0.7071 0.7071 -0.7071 0.7071 56.0928 -13.0851)" fill="#000000" width="28.881" height="6.498"/><g><path fill="#000000" d="M100,129.238c-6.568,0-11.913-5.345-11.913-11.913s5.345-11.913,11.913-11.913s11.913,5.345,11.913,11.913    S106.568,129.238,100,129.238z M100,111.91c-2.985,0-5.415,2.429-5.415,5.415s2.43,5.415,5.415,5.415s5.415-2.429,5.415-5.415    S102.985,111.91,100,111.91z"/><rect x="108.664" y="114.076" fill="#000000" width="30.239" height="6.498"/></g><g><rect x="96.751" y="63.26" fill="#000000" width="6.498" height="7.22"/><rect x="112.343" y="65.73" transform="matrix(0.951 0.3091 -0.3091 0.951 27.0907 -32.3314)" fill="#000000" width="6.498" height="7.22"/><rect x="126.41" y="72.897" transform="matrix(0.8091 0.5877 -0.5877 0.8091 69.7158 -61.5925)" fill="#000000" width="6.497" height="7.22"/><rect x="137.571" y="84.06" transform="matrix(0.5877 0.8091 -0.8091 0.5877 128.9944 -77.7881)" fill="#000000" width="6.497" height="7.22"/><rect x="144.736" y="98.125" transform="matrix(0.3088 0.9511 -0.9511 0.3088 199.0426 -70.4368)" fill="#000000" width="6.501" height="7.22"/><rect x="146.846" y="114.079" fill="#000000" width="7.22" height="6.498"/></g></g><text x="0" y="215" fill="#000000" font-size="5px" font-weight="bold" font-family="'Helvetica Neue', Helvetica, Arial-Unicode, Arial, Sans-serif"></text><text x="0" y="220" fill="#000000" font-size="5px" font-weight="bold" font-family="'Helvetica Neue', Helvetica, Arial-Unicode, Arial, Sans-serif"></text></svg>